name C:\Users\u0101727\Documents\MyRepositories\upper-imu-dc\Results\main_tracking\Case_47\FLX03_angularVelocities_groundFrame.mot
datacolumns 4
datarows 82
range 2.13000000 2.94000000
endheader 
time	radius_imu_x	radius_imu_y	radius_imu_z	
          2.13000000	         -1.22633713	          0.77247235	          0.98614610	
          2.14000000	         -1.17925644	          0.73565655	          1.00302579	
          2.15000000	         -1.13368674	          0.69937882	          1.01818826	
          2.16000000	         -1.09036405	          0.66357569	          1.03147415	
          2.17000000	         -1.04998572	          0.62816085	          1.04276747	
          2.18000000	         -1.01319854	          0.59302727	          1.05199230	
          2.19000000	         -0.98058101	          0.55804901	          1.05910872	
          2.20000000	         -0.95261723	          0.52308463	          1.06411012	
          2.21000000	         -0.92966026	          0.48798467	          1.06702419	
          2.22000000	         -0.91188571	          0.45260543	          1.06791885	
          2.23000000	         -0.89924273	          0.41683012	          1.06691238	
          2.24000000	         -0.89141492	          0.38059505	          1.06418467	
          2.25000000	         -0.88780743	          0.34391554	          1.05998474	
          2.26000000	         -0.88757271	          0.30690405	          1.05462873	
          2.27000000	         -0.88967402	          0.26977547	          1.04848627	
          2.28000000	         -0.89297233	          0.23283856	          1.04195728	
          2.29000000	         -0.89631968	          0.19647561	          1.03544390	
          2.30000000	         -0.89864532	          0.16111422	          1.02932231	
          2.31000000	         -0.89902674	          0.12719556	          1.02391835	
          2.32000000	         -0.89674324	          0.09514329	          1.01948883	
          2.33000000	         -0.89131064	          0.06533621	          1.01620911	
          2.34000000	         -0.88249481	          0.03808772	          1.01416801	
          2.35000000	         -0.87030053	          0.01363484	          1.01337131	
          2.36000000	         -0.85493574	         -0.00786258	          1.01375330	
          2.37000000	         -0.83675953	         -0.02631499	          1.01519472	
          2.38000000	         -0.81622712	         -0.04169475	          1.01754150	
          2.39000000	         -0.79384646	         -0.05403191	          1.02062146	
          2.40000000	         -0.77014801	         -0.06341511	          1.02425771	
          2.41000000	         -0.74566667	         -0.06999666	          1.02827526	
          2.42000000	         -0.72092583	         -0.07399599	          1.03250497	
          2.43000000	         -0.69642139	         -0.07569877	          1.03678803	
          2.44000000	         -0.67261060	         -0.07545429	          1.04097943	
          2.45000000	         -0.64990209	         -0.07366899	          1.04495144	
          2.46000000	         -0.62864706	         -0.07079465	          1.04859830	
          2.47000000	         -0.60913060	         -0.06731066	          1.05184037	
          2.48000000	         -0.59156366	         -0.06370127	          1.05462618	
          2.49000000	         -0.57607842	         -0.06043102	          1.05693056	
          2.50000000	         -0.56272955	         -0.05792322	          1.05874708	
          2.51000000	         -0.55150272	         -0.05654538	          1.06007583	
          2.52000000	         -0.54232876	         -0.05660355	          1.06090980	
          2.53000000	         -0.53510024	         -0.05834473	          1.06122352	
          2.54000000	         -0.52968720	         -0.06196477	          1.06096651	
          2.55000000	         -0.52594882	         -0.06761747	          1.06006254	
          2.56000000	         -0.52373875	         -0.07542083	          1.05841436	
          2.57000000	         -0.52290398	         -0.08545818	          1.05591259	
          2.58000000	         -0.52327970	         -0.09777511	          1.05244612	
          2.59000000	         -0.52468349	         -0.11237466	          1.04791143	
          2.60000000	         -0.52691211	         -0.12921318	          1.04221861	
          2.61000000	         -0.52974154	         -0.14819750	          1.03529433	
          2.62000000	         -0.53292964	         -0.16918311	          1.02708315	
          2.63000000	         -0.53622064	         -0.19197365	          1.01754856	
          2.64000000	         -0.53935163	         -0.21632338	          1.00667464	
          2.65000000	         -0.54206077	         -0.24194309	          0.99446851	
          2.66000000	         -0.54409616	         -0.26850863	          0.98096360	
          2.67000000	         -0.54522441	         -0.29567038	          0.96622375	
          2.68000000	         -0.54523809	         -0.32306314	          0.95034789	
          2.69000000	         -0.54396229	         -0.35031662	          0.93347417	
          2.70000000	         -0.54126032	         -0.37706755	          0.91578209	
          2.71000000	         -0.53703884	         -0.40297344	          0.89749088	
          2.72000000	         -0.53125170	         -0.42772715	          0.87885342	
          2.73000000	         -0.52390155	         -0.45106999	          0.86014601	
          2.74000000	         -0.51503796	         -0.47280039	          0.84165550	
          2.75000000	         -0.50475178	         -0.49277639	          0.82366580	
          2.76000000	         -0.49316625	         -0.51091172	          0.80644560	
          2.77000000	         -0.48042493	         -0.52716571	          0.79023891	
          2.78000000	         -0.46668138	         -0.54153282	          0.77525746	
          2.79000000	         -0.45209018	         -0.55403257	          0.76167521	
          2.80000000	         -0.43679902	         -0.56469996	          0.74962510	
          2.81000000	         -0.42094274	         -0.57357877	          0.73919743	
          2.82000000	         -0.40463919	         -0.58071784	          0.73044052	
          2.83000000	         -0.38798549	         -0.58616722	          0.72336494	
          2.84000000	         -0.37105549	         -0.58997316	          0.71795067	
          2.85000000	         -0.35390068	         -0.59217321	          0.71415533	
          2.86000000	         -0.33655518	         -0.59279360	          0.71192105	
          2.87000000	         -0.31904504	         -0.59185254	          0.71117779	
          2.88000000	         -0.30139993	         -0.58937164	          0.71184275	
          2.89000000	         -0.28366440	         -0.58539527	          0.71381735	
          2.90000000	         -0.26590508	         -0.58001432	          0.71698428	
          2.91000000	         -0.24821146	         -0.57338819	          0.72120637	
          2.92000000	         -0.23069017	         -0.56575339	          0.72632952	
          2.93000000	         -0.21345372	         -0.55741400	          0.73218781	
          2.94000000	         -0.19661039	         -0.54872182	          0.73860500	
